<svg xmlns="http://www.w3.org/2000/svg">
  <symbol id="youtube" viewBox="0 0 66 66">
    <path fill="#FF0000" d="M63,14.87c-0.72-2.7-2.85-4.83-5.56-5.56C52.54,8,32.88,8,32.88,8S13.23,8,8.32,9.31c-2.7,0.72-4.83,2.85-5.56,5.56C1.45,19.77,1.45,30,1.45,30s0,10.23,1.31,15.13c0.72,2.7,2.85,4.83,5.56,5.56C13.23,52,32.88,52,32.88,52s19.66,0,24.56-1.31c2.7-0.72,4.83-2.85,5.56-5.56C64.31,40.23,64.31,30,64.31,30S64.31,19.77,63,14.87z" />
    <polygon fill="#FFFFFF" points="26.6,39.43 42.93,30 26.6,20.57" />
  </symbol>
  <symbol id="close" viewBox="0 0 24 24">
    <path d="M0 0h24v24H0z" fill="transparent"/>    
    <path d="M19 6.41L17.59 5 12 10.59 6.41 5 5 6.41 10.59 12 5 17.59 6.41 19 12 13.41 17.59 19 19 17.59 13.41 12z"/>
  </symbol>
  <symbol id="video_prev" viewBox="0 0 24 24">
    <path d="M0 0h24v24H0z" fill="transparent"/>
    <path d="M6 6h2v12H6zm3.5 6l8.5 6V6z" />
  </symbol>
  <symbol id="video_play" viewBox="0 0 24 24">
    <path d="M0 0h24v24H0z" fill="transparent"/>
    <path d="M8 5v14l11-7z" />
  </symbol>
  <symbol id="video_pause" viewBox="0 0 24 24">
    <path d="M0 0h24v24H0z" fill="transparent"/>
    <path d="M6 19h4V5H6v14zm8-14v14h4V5h-4z" />
  </symbol>
  <symbol id="video_replay" viewBox="0 0 24 24">
    <path d="M0 0h24v24H0z" fill="transparent"/>
    <path d="M12 5V1L7 6l5 5V7c3.31 0 6 2.69 6 6s-2.69 6-6 6-6-2.69-6-6H4c0 4.42 3.58 8 8 8s8-3.58 8-8-3.58-8-8-8z" />
  </symbol>
  <symbol id="video_next" viewBox="0 0 24 24">
    <path d="M0 0h24v24H0z" fill="transparent"/>
    <path d="M6 18l8.5-6L6 6v12zM16 6v12h2V6h-2z" />
  </symbol>
  <symbol id="volume_mute" viewBox="0 0 24 24">
    <path d="M0 0h24v24H0z" fill="transparent"/>
    <path d="M16.5 12c0-1.77-1.02-3.29-2.5-4.03v2.21l2.45 2.45c.03-.2.05-.41.05-.63zm2.5 0c0 .94-.2 1.82-.54 2.64l1.51 1.51C20.63 14.91 21 13.5 21 12c0-4.28-2.99-7.86-7-8.77v2.06c2.89.86 5 3.54 5 6.71zM4.27 3L3 4.27 7.73 9H3v6h4l5 5v-6.73l4.25 4.25c-.67.52-1.42.93-2.25 1.18v2.06c1.38-.31 2.63-.95 3.69-1.81L19.73 21 21 19.73l-9-9L4.27 3zM12 4L9.91 6.09 12 8.18V4z" />
  </symbol>
  <symbol id="volume_off" viewBox="0 0 24 24">
    <path d="M0 0h24v24H0z" fill="transparent"/>
    <path d="M7 9v6h4l5 5V4l-5 5H7z" />
  </symbol>
  <symbol id="volume_down" viewBox="0 0 24 24">
    <path d="M0 0h24v24H0z" fill="transparent"/>
    <path d="M18.5 12c0-1.77-1.02-3.29-2.5-4.03v8.05c1.48-.73 2.5-2.25 2.5-4.02zM5 9v6h4l5 5V4L9 9H5z" />
  </symbol>
  <symbol id="volume_up" viewBox="0 0 24 24">
    <path d="M0 0h24v24H0z" fill="transparent"/>
    <path d="M3 9v6h4l5 5V4L7 9H3zm13.5 3c0-1.77-1.02-3.29-2.5-4.03v8.05c1.48-.73 2.5-2.25 2.5-4.02zM14 3.23v2.06c2.89.86 5 3.54 5 6.71s-2.11 5.85-5 6.71v2.06c4.01-.91 7-4.49 7-8.77s-2.99-7.86-7-8.77z" />
  </symbol>
  <symbol id="playlist_load" viewBox="0 0 24 24">
    <path d="M0 0h24v24H0z" fill="transparent"/>    
    <path d="M19 3H5c-1.1 0-2 .9-2 2v14c0 1.1.9 2 2 2h14c1.1 0 2-.9 2-2V5c0-1.1-.9-2-2-2zm-5 14h-2V9h-2V7h4v10z"/>
  </symbol>
  <symbol id="playlist_repeat" viewBox="0 0 24 24">
    <path d="M0 0h24v24H0z" fill="transparent"/>
    <path d="M7 7h10v3l4-4-4-4v3H5v6h2V7zm10 10H7v-3l-4 4 4 4v-3h12v-6h-2v4z" />
  </symbol>
  <symbol id="playlist_repeat_one" viewBox="0 0 24 24">
    <path d="M0 0h24v24H0z" fill="transparent"/>
    <path d="M7 7h10v3l4-4-4-4v3H5v6h2V7zm10 10H7v-3l-4 4 4 4v-3h12v-6h-2v4zm-4-2V9h-1l-2 1v1h1.5v4H13z" />
  </symbol>
  <symbol id="playlist_shuffle" viewBox="0 0 24 24">
    <path d="M0 0h24v24H0z" fill="transparent"/>
    <path d="M10.59 9.17L5.41 4 4 5.41l5.17 5.17 1.42-1.41zM14.5 4l2.04 2.04L4 18.59 5.41 20 17.96 7.46 20 9.5V4h-5.5zm.33 9.41l-1.41 1.41 3.13 3.13L14.5 20H20v-5.5l-2.04 2.04-3.13-3.13z" />
  </symbol>
  <symbol id="playlist_open" viewBox="0 0 24 24">
    <path d="M0 0h24v24H0z" fill="transparent"/>
    <path d="M14 10H2v2h12v-2zm0-4H2v2h12V6zm4 8v-4h-2v4h-4v2h4v4h2v-4h4v-2h-4zM2 16h8v-2H2v2z" />
  </symbol>
  <symbol id="app_reload" viewBox="0 0 24 24">
    <path d="M0 0h24v24H0z" fill="transparent"/>
    <path d="M12 6v3l4-4-4-4v3c-4.42 0-8 3.58-8 8 0 1.57.46 3.03 1.24 4.26L6.7 14.8c-.45-.83-.7-1.79-.7-2.8 0-3.31 2.69-6 6-6zm6.76 1.74L17.3 9.2c.44.84.7 1.79.7 2.8 0 3.31-2.69 6-6 6v-3l-4 4 4 4v-3c4.42 0 8-3.58 8-8 0-1.57-.46-3.03-1.24-4.26z" />
  </symbol>
  <symbol id="video_open" viewBox="0 0 24 24">
    <path d="M0 0h24v24H0z" fill="transparent"/>
    <path d="M19 4H5c-1.11 0-2 .9-2 2v12c0 1.1.89 2 2 2h4v-2H5V8h14v10h-4v2h4c1.1 0 2-.9 2-2V6c0-1.1-.89-2-2-2zm-7 6l-4 4h3v6h2v-6h3l-4-4z" />
  </symbol>
  <symbol id="result_prev" viewBox="0 0 24 24">
    <path d="M0 0h24v24H0z" fill="transparent"/>
    <path d="M15.41 7.41L14 6l-6 6 6 6 1.41-1.41L10.83 12z"/>
  </symbol>
  <symbol id="result_next" viewBox="0 0 24 24">
    <path d="M0 0h24v24H0z" fill="transparent"/>
    <path d="M10 6L8.59 7.41 13.17 12l-4.58 4.59L10 18l6-6z"/>
  </symbol>
</svg>